<?xml version="1.0" standalone="no"?>
<!DOCTYPE svg PUBLIC "-//W3C//DTD SVG 20010904//EN"
 "http://www.w3.org/TR/2001/REC-SVG-20010904/DTD/svg10.dtd">
<svg version="1.0" xmlns="http://www.w3.org/2000/svg"
 width="500.000000pt" height="250.000000pt" viewBox="0 0 500.000000 250.000000"
 preserveAspectRatio="xMidYMid meet">

<g transform="translate(0.000000,250.000000) scale(0.100000,-0.100000)"
fill="#000000" stroke="none">
<path d="M50 892 c0 -5 7 -13 15 -16 13 -5 15 -27 13 -138 -3 -130 -3 -133
-28 -145 -22 -11 -17 -13 50 -13 67 0 72 2 50 13 -22 11 -25 20 -28 70 l-3 57
30 0 c26 0 36 -9 70 -58 44 -65 56 -77 89 -85 25 -6 29 1 7 17 -8 6 -33 40
-54 75 l-40 64 25 19 c32 26 32 77 0 115 -23 26 -31 28 -110 32 -53 2 -86 -1
-86 -7z m163 -33 c39 -48 9 -119 -53 -122 l-35 -2 -3 64 c-2 35 0 71 3 79 8
20 65 8 88 -19z"/>
<path d="M3550 879 c-54 -32 -74 -65 -78 -134 -3 -50 0 -66 20 -94 46 -68 131
-92 221 -62 35 12 37 15 37 56 0 34 5 47 22 59 21 15 18 16 -52 15 -41 -1 -66
-4 -55 -6 34 -9 45 -24 45 -64 0 -47 -25 -64 -82 -56 -68 9 -109 64 -110 146
0 91 46 146 124 146 51 0 59 -6 95 -61 10 -17 12 -15 12 17 1 33 -2 37 -38 47
-58 18 -121 14 -161 -9z"/>
<path d="M501 868 c-4 -13 -28 -79 -51 -146 -32 -92 -49 -126 -64 -132 -15 -6
-1 -9 44 -8 44 0 57 2 40 7 -29 9 -31 36 -6 94 14 35 18 37 59 37 l44 0 22
-56 c11 -31 21 -58 21 -60 0 -2 -15 -8 -32 -13 -28 -8 -23 -9 41 -10 71 -1 73
0 52 17 -12 10 -40 72 -68 152 -41 115 -52 135 -71 138 -15 2 -24 -3 -31 -20z
m53 -106 c7 -20 4 -22 -28 -22 -41 0 -44 11 -20 68 l15 37 13 -31 c8 -17 17
-40 20 -52z"/>
<path d="M748 880 c12 -5 47 -48 77 -95 47 -73 55 -92 55 -133 0 -41 -4 -51
-22 -60 -19 -9 -11 -11 47 -11 63 -1 67 1 45 12 -20 10 -26 21 -28 57 -2 38 5
58 46 130 27 47 60 91 73 97 22 12 19 13 -30 13 -46 0 -52 -2 -38 -12 15 -12
13 -18 -20 -75 -21 -35 -41 -63 -44 -63 -9 0 -79 114 -79 128 0 6 6 13 13 15
6 3 -17 5 -53 6 -49 0 -59 -3 -42 -9z"/>
<path d="M1185 750 c-32 -96 -53 -145 -68 -155 -20 -14 -18 -15 38 -15 56 0
58 1 35 13 -27 15 -27 20 -3 85 15 41 17 42 60 42 41 0 45 -2 59 -37 25 -58
23 -85 -6 -94 -16 -4 2 -7 50 -7 60 -1 71 2 53 10 -12 6 -24 16 -26 22 -2 6
-26 71 -52 144 -42 117 -50 132 -70 132 -21 0 -28 -14 -70 -140z m75 65 c5
-14 13 -37 16 -50 6 -23 3 -25 -30 -25 -20 0 -36 1 -36 3 0 10 33 97 36 97 3
0 9 -11 14 -25z"/>
<path d="M1488 883 c9 -3 12 -42 12 -144 0 -135 -1 -140 -22 -149 -17 -6 -7
-9 42 -9 49 0 59 2 42 9 -31 13 -33 22 -30 145 l3 108 118 -131 c66 -73 123
-132 128 -132 5 0 9 65 9 145 0 127 2 145 18 154 13 8 6 10 -33 10 -39 0 -46
-2 -32 -10 14 -8 17 -26 17 -114 l0 -105 -102 114 c-99 110 -105 114 -143 114
-22 0 -34 -2 -27 -5z"/>
<path d="M1908 883 c9 -3 12 -42 12 -144 0 -135 -1 -140 -22 -149 -17 -6 -7
-9 42 -9 49 0 59 2 42 9 -31 13 -33 22 -30 145 l3 108 118 -131 c66 -73 123
-132 128 -132 5 0 9 65 9 145 0 127 2 145 18 154 13 8 6 10 -33 10 -39 0 -46
-2 -32 -10 14 -8 17 -26 17 -114 l0 -105 -102 114 c-99 110 -105 114 -143 114
-22 0 -34 -2 -27 -5z"/>
<path d="M2333 877 c15 -11 17 -29 15 -147 l-3 -135 -30 -6 c-16 -4 29 -6 100
-5 l130 1 2 40 c2 36 1 37 -8 15 -14 -34 -26 -40 -86 -40 l-53 0 0 65 0 65 48
0 c41 0 51 -4 60 -22 9 -20 11 -15 11 32 1 52 0 53 -15 32 -12 -17 -25 -22
-60 -22 l-44 0 0 60 0 61 57 -3 c51 -3 58 -6 64 -28 6 -21 7 -20 8 13 l1 37
-107 0 c-88 0 -104 -2 -90 -13z"/>
<path d="M3965 878 c-3 -7 -22 -65 -44 -128 -54 -156 -51 -151 -75 -160 -15
-6 -1 -9 44 -8 44 0 57 2 40 7 -29 9 -31 36 -6 95 15 36 17 37 62 34 l47 -3
19 -54 c19 -57 17 -66 -17 -74 -11 -3 11 -5 50 -6 62 -1 67 0 49 13 -12 9 -38
66 -69 155 -45 126 -52 141 -73 141 -12 0 -25 -6 -27 -12z m49 -115 c7 -21 4
-23 -29 -23 -34 0 -37 2 -31 25 3 13 11 37 17 52 l11 28 13 -30 c7 -16 16 -40
19 -52z"/>
<path d="M4238 877 c9 -10 11 -41 7 -103 -10 -155 -14 -174 -38 -184 -16 -6
-6 -9 38 -9 46 0 55 2 38 9 -20 8 -23 16 -22 67 1 32 4 82 7 112 l7 54 54
-121 c30 -67 56 -122 58 -122 2 0 30 55 63 123 l58 122 1 -51 c1 -28 4 -79 7
-112 6 -58 6 -62 -17 -71 -19 -8 -9 -10 46 -10 63 -1 67 1 45 12 -24 12 -25
18 -33 142 -8 119 -7 130 10 143 16 12 14 13 -21 10 l-40 -3 -50 -112 c-27
-62 -53 -113 -57 -113 -3 0 -29 51 -57 113 -48 108 -51 112 -83 115 -28 3 -31
1 -21 -11z"/>
<path d="M4740 758 c-25 -75 -55 -143 -67 -155 l-22 -23 62 1 c34 1 52 4 39 6
-33 6 -36 25 -17 83 l17 50 48 0 48 0 17 -50 c19 -58 16 -77 -17 -83 -13 -2
10 -5 51 -6 71 -1 73 -1 52 17 -14 10 -40 69 -70 152 -43 118 -51 135 -72 138
-22 3 -27 -7 -69 -130z m78 43 c17 -55 15 -61 -18 -61 -16 0 -30 5 -30 11 0
21 23 89 30 89 4 0 12 -17 18 -39z"/>
</g>
</svg>
